<svg id="svg" version="1.1" xmlns="http://www.w3.org/2000/svg" xmlns:xlink="http://www.w3.org/1999/xlink" width="400" height="393.75609756097555" viewBox="0, 0, 400,393.75609756097555"><g id="svgg"><path id="path0" d="M166.230 114.917 C 160.643 116.045,154.323 119.318,150.880 122.866 L 149.369 124.422 147.916 122.894 C 145.917 120.793,143.785 120.723,141.815 122.693 L 140.488 124.020 140.488 142.615 C 140.488 165.907,140.090 164.683,147.659 164.683 L 151.924 164.683 151.590 160.098 C 151.406 157.576,151.272 154.283,151.292 152.780 C 151.311 151.278,151.363 147.590,151.407 144.585 C 151.450 141.580,151.426 138.595,151.353 137.951 C 151.188 136.505,151.559 136.509,155.850 138.007 L 158.920 139.079 166.829 138.621 C 172.776 138.277,176.807 138.272,183.076 138.601 C 192.070 139.074,191.716 139.116,196.961 136.944 C 198.684 136.231,198.783 136.469,198.371 140.312 C 198.164 142.245,198.151 144.871,198.341 146.474 C 198.522 148.011,198.559 152.746,198.422 156.997 L 198.174 164.726 200.258 164.607 L 202.341 164.488 202.257 161.756 C 202.157 158.510,202.162 147.899,202.266 143.902 C 202.306 142.346,202.185 140.038,201.996 138.774 C 201.596 136.098,201.322 136.146,206.439 137.989 L 209.366 139.043 217.561 138.612 C 223.535 138.297,227.977 138.297,233.951 138.610 C 242.783 139.073,242.457 139.112,247.692 136.944 C 249.441 136.221,249.547 136.504,248.986 140.414 C 248.605 143.072,248.592 144.617,248.928 147.118 C 249.489 151.285,249.486 154.216,248.914 158.834 C 248.661 160.876,248.575 163.028,248.722 163.615 L 248.990 164.683 253.120 164.683 L 257.249 164.683 258.576 163.356 L 259.902 162.029 259.902 142.910 L 259.902 123.790 258.770 122.578 C 257.069 120.756,254.459 120.822,252.658 122.732 C 251.082 124.403,251.193 124.403,249.437 122.715 C 245.979 119.388,241.499 116.935,235.713 115.199 C 232.783 114.320,170.439 114.067,166.230 114.917 M105.756 184.177 C 75.929 190.580,64.401 227.277,85.019 250.189 C 93.024 259.084,103.292 263.024,118.467 263.024 C 126.238 263.024,126.033 262.888,122.884 265.963 C 118.719 270.032,118.450 273.796,122.185 275.727 C 125.189 277.281,126.387 276.601,133.849 269.100 L 139.893 263.024 200.167 263.024 L 260.440 263.024 266.923 269.436 C 273.637 276.078,274.381 276.574,276.997 276.159 C 281.822 275.392,282.192 270.572,277.782 265.929 L 275.023 263.024 282.241 263.024 C 297.032 263.024,306.633 259.410,314.869 250.739 C 335.880 228.620,325.886 192.894,296.333 184.482 L 293.268 183.610 201.171 183.537 C 113.338 183.468,108.920 183.498,105.756 184.177 M293.073 202.098 C 313.396 209.527,313.358 237.666,293.017 244.092 L 289.911 245.073 200.452 245.073 C 101.186 245.073,109.092 245.288,103.687 242.448 C 84.980 232.617,90.329 204.093,111.415 201.245 C 112.059 201.158,152.624 201.106,201.561 201.129 L 290.537 201.171 293.073 202.098 " stroke="none" fill="#251d24" fill-rule="evenodd"></path><path id="path1" d="M0.000 196.878 L 0.000 393.756 200.000 393.756 L 400.000 393.756 400.000 196.878 L 400.000 0.000 200.000 0.000 L 0.000 0.000 0.000 196.878 M235.612 114.847 C 240.753 116.231,245.190 118.575,249.286 122.069 C 251.351 123.831,251.352 123.831,251.943 122.987 C 253.840 120.279,258.328 120.506,259.975 123.394 C 260.636 124.553,260.947 158.742,260.317 161.079 C 259.478 164.197,258.157 164.878,252.951 164.878 L 248.390 164.878 248.248 163.707 C 248.170 163.063,248.329 160.308,248.602 157.585 C 249.006 153.552,249.003 151.763,248.590 147.945 C 248.183 144.187,248.177 142.665,248.562 140.279 C 249.156 136.602,249.195 136.637,245.968 137.996 C 243.374 139.090,243.196 139.110,237.659 138.938 C 230.710 138.723,221.368 138.728,213.854 138.951 C 208.630 139.106,208.015 139.048,205.854 138.208 C 201.808 136.635,202.036 136.597,202.407 138.775 C 202.586 139.825,202.702 142.088,202.665 143.805 C 202.564 148.567,202.555 157.852,202.648 161.561 L 202.732 164.878 200.340 164.993 L 197.947 165.108 197.695 163.422 C 197.556 162.495,197.619 160.511,197.835 159.014 C 198.335 155.552,198.339 149.999,197.843 146.732 C 197.575 144.967,197.595 143.153,197.908 140.772 C 198.457 136.588,198.514 136.647,195.247 138.011 C 192.645 139.097,192.458 139.118,186.927 138.943 C 179.997 138.723,170.659 138.727,163.122 138.952 C 157.614 139.117,157.393 139.093,154.833 138.023 C 151.547 136.651,151.476 136.704,151.944 140.163 C 152.210 142.129,152.188 144.688,151.871 148.477 C 151.559 152.218,151.534 154.816,151.792 156.683 C 152.000 158.185,152.175 160.688,152.182 162.244 L 152.195 165.073 147.960 165.073 C 143.329 165.073,141.673 164.456,140.597 162.330 C 139.805 160.766,139.891 124.849,140.690 123.304 C 142.051 120.672,145.490 120.208,147.849 122.339 L 149.358 123.703 151.069 122.233 C 156.165 117.855,161.598 115.275,167.610 114.378 C 172.273 113.683,232.840 114.100,235.612 114.847 M296.585 184.306 C 326.422 192.976,336.406 228.634,315.201 250.795 C 306.534 259.853,297.025 263.403,281.399 263.411 L 275.774 263.415 278.344 266.077 C 282.570 270.454,282.243 274.780,277.569 276.322 C 274.752 277.252,273.909 276.737,266.916 269.820 L 260.440 263.415 200.167 263.415 L 139.893 263.415 133.658 269.659 C 126.074 277.254,124.292 278.048,121.013 275.289 C 118.146 272.876,118.559 269.717,122.246 265.878 L 124.612 263.415 119.266 263.415 C 91.875 263.415,74.406 247.769,74.387 223.220 C 74.371 202.734,88.277 186.405,108.293 183.408 C 109.366 183.247,151.337 183.141,201.561 183.172 L 292.878 183.228 296.585 184.306 M108.878 201.982 C 87.852 207.515,87.042 236.578,107.707 243.971 L 110.244 244.878 198.924 244.981 C 297.101 245.096,290.562 245.259,296.000 242.555 C 313.938 233.634,310.870 206.948,291.333 201.960 C 287.905 201.084,112.207 201.106,108.878 201.982 " stroke="none" fill="#fbfbfb" fill-rule="evenodd"></path><path id="path2" d="M150.255 123.110 C 149.757 123.640,149.173 123.964,148.956 123.830 C 148.723 123.686,148.684 123.784,148.861 124.069 C 149.111 124.474,151.415 122.849,151.415 122.268 C 151.415 121.981,151.105 122.205,150.255 123.110 M260.083 143.024 C 260.083 153.327,260.133 157.485,260.195 152.266 C 260.256 147.046,260.256 138.617,260.195 133.534 C 260.133 128.451,260.083 132.722,260.083 143.024 M140.277 142.829 C 140.277 152.595,140.328 156.590,140.390 151.707 C 140.452 146.824,140.452 138.834,140.390 133.951 C 140.328 129.068,140.277 133.063,140.277 142.829 M201.847 137.756 C 201.847 138.507,201.927 138.815,202.025 138.439 C 202.123 138.063,202.123 137.449,202.025 137.073 C 201.927 136.698,201.847 137.005,201.847 137.756 M173.171 138.432 C 174.083 138.514,175.576 138.514,176.488 138.432 C 177.400 138.350,176.654 138.283,174.829 138.283 C 173.005 138.283,172.259 138.350,173.171 138.432 M224.303 138.433 C 225.221 138.515,226.626 138.514,227.425 138.430 C 228.224 138.346,227.473 138.279,225.756 138.280 C 224.039 138.282,223.385 138.350,224.303 138.433 M151.911 143.610 C 151.911 144.576,151.987 144.971,152.080 144.488 C 152.173 144.005,152.173 143.215,152.080 142.732 C 151.987 142.249,151.911 142.644,151.911 143.610 M197.944 145.171 C 197.944 145.922,198.025 146.229,198.123 145.854 C 198.221 145.478,198.221 144.863,198.123 144.488 C 198.025 144.112,197.944 144.420,197.944 145.171 M249.066 150.244 C 249.066 150.995,249.146 151.302,249.245 150.927 C 249.343 150.551,249.343 149.937,249.245 149.561 C 249.146 149.185,249.066 149.493,249.066 150.244 M201.897 152.976 C 201.897 155.015,201.963 155.849,202.043 154.829 C 202.123 153.810,202.123 152.141,202.043 151.122 C 201.963 150.102,201.897 150.937,201.897 152.976 M151.152 152.780 C 151.154 154.283,151.225 154.850,151.309 154.040 C 151.394 153.230,151.392 152.001,151.306 151.308 C 151.220 150.616,151.151 151.278,151.152 152.780 M249.066 155.707 C 249.066 156.459,249.146 156.766,249.245 156.390 C 249.343 156.015,249.343 155.400,249.245 155.024 C 249.146 154.649,249.066 154.956,249.066 155.707 M198.019 161.951 L 198.049 164.878 199.957 164.999 C 201.006 165.066,202.008 164.978,202.182 164.804 C 202.357 164.630,201.550 164.547,200.390 164.620 L 198.280 164.753 198.135 161.889 L 197.990 159.024 198.019 161.951 M248.685 164.293 C 248.811 164.758,249.598 164.883,252.519 164.903 L 256.195 164.929 252.696 164.789 C 250.555 164.704,249.066 164.467,248.861 164.179 C 248.623 163.844,248.572 163.877,248.685 164.293 M146.049 164.970 C 147.068 165.050,148.737 165.050,149.756 164.970 C 150.776 164.889,149.941 164.824,147.902 164.824 C 145.863 164.824,145.029 164.889,146.049 164.970 M155.836 183.317 C 180.268 183.373,220.131 183.373,244.422 183.317 C 268.712 183.262,248.722 183.216,200.000 183.216 C 151.278 183.216,131.404 183.262,155.836 183.317 M85.840 195.024 L 83.707 197.268 85.951 195.135 C 88.036 193.154,88.374 192.780,88.084 192.780 C 88.023 192.780,87.013 193.790,85.840 195.024 M156.164 201.268 C 180.347 201.324,220.034 201.324,244.359 201.268 C 268.683 201.213,248.898 201.167,200.390 201.167 C 151.883 201.167,131.981 201.213,156.164 201.268 M325.944 220.098 C 325.944 220.849,326.025 221.156,326.123 220.780 C 326.221 220.405,326.221 219.790,326.123 219.415 C 326.025 219.039,325.944 219.346,325.944 220.098 M74.278 223.220 C 74.278 224.829,74.346 225.488,74.431 224.683 C 74.515 223.878,74.515 222.561,74.431 221.756 C 74.346 220.951,74.278 221.610,74.278 223.220 M325.952 226.146 C 325.956 227.005,326.036 227.310,326.130 226.825 C 326.223 226.339,326.219 225.637,326.122 225.264 C 326.024 224.891,325.948 225.288,325.952 226.146 M301.659 238.634 C 300.711 239.600,300.023 240.390,300.130 240.390 C 300.237 240.390,301.101 239.600,302.049 238.634 C 302.997 237.668,303.684 236.878,303.577 236.878 C 303.470 236.878,302.606 237.668,301.659 238.634 M314.125 251.610 L 312.780 253.073 314.244 251.728 C 315.606 250.477,315.887 250.146,315.589 250.146 C 315.524 250.146,314.865 250.805,314.125 251.610 M122.550 265.941 L 120.028 268.683 122.727 266.063 C 124.212 264.622,125.348 263.389,125.250 263.322 C 125.153 263.255,123.938 264.433,122.550 265.941 " stroke="none" fill="#848484" fill-rule="evenodd"></path><path id="path3" d="M185.882 114.244 C 193.786 114.303,206.606 114.303,214.370 114.244 C 222.135 114.185,215.668 114.136,200.000 114.136 C 184.332 114.136,177.979 114.185,185.882 114.244 M250.232 123.135 C 250.816 123.749,251.363 124.173,251.449 124.077 C 251.534 123.981,251.057 123.479,250.388 122.960 L 249.171 122.018 250.232 123.135 M260.472 143.024 C 260.472 152.683,260.523 156.578,260.585 151.681 C 260.647 146.783,260.647 138.881,260.585 134.120 C 260.523 129.359,260.472 133.366,260.472 143.024 M197.711 136.848 C 197.954 137.026,198.250 137.522,198.368 137.951 C 198.538 138.567,198.568 138.532,198.511 137.787 C 198.471 137.267,198.176 136.771,197.854 136.684 C 197.467 136.579,197.418 136.635,197.711 136.848 M187.610 139.209 C 188.307 139.296,189.449 139.296,190.146 139.209 C 190.844 139.123,190.273 139.052,188.878 139.052 C 187.483 139.052,186.912 139.123,187.610 139.209 M238.341 139.209 C 239.039 139.296,240.180 139.296,240.878 139.209 C 241.576 139.123,241.005 139.052,239.610 139.052 C 238.215 139.052,237.644 139.123,238.341 139.209 M248.323 143.805 C 248.325 145.307,248.395 145.874,248.480 145.064 C 248.564 144.255,248.563 143.026,248.477 142.333 C 248.391 141.640,248.321 142.302,248.323 143.805 M197.562 143.805 C 197.566 144.663,197.646 144.969,197.739 144.483 C 197.833 143.998,197.829 143.295,197.732 142.922 C 197.634 142.549,197.557 142.946,197.562 143.805 M151.505 149.854 C 151.505 150.605,151.585 150.912,151.684 150.537 C 151.782 150.161,151.782 149.546,151.684 149.171 C 151.585 148.795,151.505 149.102,151.505 149.854 M198.372 152.780 C 198.374 154.283,198.444 154.850,198.529 154.040 C 198.613 153.230,198.612 152.001,198.526 151.308 C 198.439 150.616,198.370 151.278,198.372 152.780 M202.635 160.195 C 202.639 161.054,202.719 161.359,202.813 160.873 C 202.906 160.388,202.902 159.686,202.805 159.313 C 202.707 158.939,202.631 159.337,202.635 160.195 M248.254 161.831 C 248.221 163.374,248.327 164.719,248.488 164.818 C 248.649 164.918,248.730 164.094,248.669 162.988 C 248.470 159.399,248.313 158.963,248.254 161.831 M197.562 161.756 C 197.566 162.615,197.646 162.920,197.739 162.434 C 197.833 161.949,197.829 161.247,197.732 160.873 C 197.634 160.500,197.557 160.898,197.562 161.756 M314.537 194.927 C 315.702 196.107,316.744 197.073,316.851 197.073 C 316.959 197.073,316.093 196.107,314.927 194.927 C 313.761 193.746,312.719 192.780,312.612 192.780 C 312.505 192.780,313.371 193.746,314.537 194.927 M85.634 194.829 L 84.488 196.098 85.756 194.951 C 86.454 194.321,87.024 193.750,87.024 193.683 C 87.024 193.382,86.702 193.647,85.634 194.829 M301.659 207.805 C 302.387 208.556,303.070 209.171,303.177 209.171 C 303.285 209.171,302.777 208.556,302.049 207.805 C 301.321 207.054,300.637 206.439,300.530 206.439 C 300.423 206.439,300.930 207.054,301.659 207.805 M326.375 223.220 C 326.375 224.829,326.444 225.488,326.528 224.683 C 326.612 223.878,326.612 222.561,326.528 221.756 C 326.444 220.951,326.375 221.610,326.375 223.220 M308.027 223.220 C 308.027 224.615,308.098 225.185,308.185 224.488 C 308.271 223.790,308.271 222.649,308.185 221.951 C 308.098 221.254,308.027 221.824,308.027 223.220 M98.715 238.537 C 100.333 240.260,100.683 240.569,100.683 240.276 C 100.683 240.214,99.849 239.380,98.829 238.423 L 96.976 236.683 98.715 238.537 M85.854 251.512 C 87.236 252.907,88.456 254.049,88.563 254.049 C 88.670 254.049,87.627 252.907,86.244 251.512 C 84.861 250.117,83.642 248.976,83.535 248.976 C 83.427 248.976,84.471 250.117,85.854 251.512 M118.417 263.317 L 124.638 263.435 122.319 265.864 L 120.000 268.293 122.439 265.963 C 125.651 262.896,125.808 263.012,118.537 263.111 L 112.195 263.198 118.417 263.317 M170.049 263.317 C 186.629 263.373,213.761 263.373,230.341 263.317 C 246.922 263.261,233.356 263.215,200.195 263.215 C 167.034 263.215,153.468 263.261,170.049 263.317 M275.512 263.328 C 275.512 263.496,276.698 264.769,278.146 266.158 L 280.780 268.683 278.265 266.059 L 275.750 263.435 282.168 263.317 L 288.585 263.199 282.049 263.112 C 278.454 263.064,275.512 263.161,275.512 263.328 M266.537 269.463 C 269.858 272.790,272.664 275.512,272.771 275.512 C 272.878 275.512,270.248 272.790,266.927 269.463 C 263.605 266.137,260.800 263.415,260.692 263.415 C 260.585 263.415,263.215 266.137,266.537 269.463 " stroke="none" fill="#a8a4a5" fill-rule="evenodd"></path><path id="path4" d="M202.635 143.805 C 202.639 144.663,202.719 144.969,202.813 144.483 C 202.906 143.998,202.902 143.295,202.805 142.922 C 202.707 142.549,202.631 142.946,202.635 143.805 M249.082 152.976 C 249.082 153.941,249.158 154.337,249.251 153.854 C 249.344 153.371,249.344 152.580,249.251 152.098 C 249.158 151.615,249.082 152.010,249.082 152.976 M92.204 223.220 C 92.204 224.185,92.280 224.580,92.373 224.098 C 92.466 223.615,92.466 222.824,92.373 222.341 C 92.280 221.859,92.204 222.254,92.204 223.220 M133.459 269.561 L 127.415 275.707 133.561 269.663 C 139.271 264.048,139.884 263.415,139.605 263.415 C 139.549 263.415,136.783 266.180,133.459 269.561 " stroke="none" fill="#8c8b8c" fill-rule="evenodd"></path></g></svg>